# xmcd CD database file
#
# Track frame offsets:
#	150
#	21477
#	36006
#	44485
#	54637
#	72491
#	86818
#	98146
#	106074
#	116914
#	132579
#	146783
#	161586
#	171215
#	184843
#	197546
#	216399
#	231753
#	249181
#	258060
#	268237
#	294041
#	310819
#
# Disc length: 4315 seconds
#
# Revision: 0
# Processed by: cddbd v1.5.2PL0 Copyright (c) Steve Scherf et al.
# Submitted via: CDex 1.51
#
DISCID=5810d917
DTITLE=Marty Robbins - Under Western Skies - disc 1
DYEAR=1900
DGENRE=Country
TTITLE0=01.el Paso ...long vers. mono
TTITLE1=02.cool water
TTITLE2=03.in the valley
TTITLE3=04.running gun
TTITLE4=05.big iron
TTITLE5=06.the master's call
TTITLE6=07.the little green valley
TTITLE7=08.a hundred and sixty acres
TTITLE8=09.billy the kid
TTITLE9=10.the strawberry roan
TTITLE10=11.they're hanging me tonight
TTITLE11=12.utah carol
TTITLE12=13.saddle tramp
TTITLE13=14.she was young and she was pretty
TTITLE14=15.streets of laredo
TTITLE15=16.little joe the wrangler
TTITLE16=17.i've got no use for the women
TTITLE17=18.billy venero
TTITLE18=19.this peaceful sod
TTITLE19=20.five brothers
TTITLE20=21.san angelo
TTITLE21=22.ballad of the alamo
TTITLE22=23.the hanging tree
EXTD=
EXTT0=
EXTT1=
EXTT2=
EXTT3=
EXTT4=
EXTT5=
EXTT6=
EXTT7=
EXTT8=
EXTT9=
EXTT10=
EXTT11=
EXTT12=
EXTT13=
EXTT14=
EXTT15=
EXTT16=
EXTT17=
EXTT18=
EXTT19=
EXTT20=
EXTT21=
EXTT22=
PLAYORDER=
